<?xml version="1.0" encoding="UTF-8"?>
<svg width="128pt" height="128pt" version="1.1" viewBox="0 0 128 128" xmlns="http://www.w3.org/2000/svg">
 <g fill="#2053a8">
  <path d="m22.781 61.48c0 5.6055 3.375 10.66 8.5547 12.805 5.1797 2.1445 11.141 0.96094 15.105-3.0039s5.1484-9.9258 3.0039-15.105c-2.1445-5.1797-7.1992-8.5547-12.805-8.5547-7.6523 0.011718-13.852 6.207-13.859 13.859zm21.719 0c0 3.1797-1.9141 6.043-4.8516 7.2617-2.9375 1.2148-6.3164 0.54297-8.5664-1.7031-2.2461-2.25-2.9219-5.6289-1.7031-8.5664 1.2148-2.9375 4.082-4.8516 7.2617-4.8516 4.3398 0 7.8594 3.5195 7.8594 7.8594z"/>
  <path d="m123.66 47.262c-1.1016 1.1406-2.2852 2.2031-3.5391 3.1797v28.719l-12.621-21.84c-0.21484-0.39453-0.49219-0.75391-0.82031-1.0586-1.0039-1.0742-2.4102-1.6758-3.8789-1.6602-1.6133 0.007813-3.1328 0.74219-4.1406 2-0.21484 0.24219-0.40234 0.51172-0.55859 0.79688l-12.102 20.781-7.4609-12.898c-0.97266-1.6836-2.7656-2.7188-4.7109-2.7188-1.9414 0-3.7344 1.0352-4.707 2.7188l-18.641 32.379c-16.578-2-30.898 2.1992-41.379 5.2812l-1.3008 0.37891v-64.262c0-1.1016 0.89453-2 2-2h63.379c-0.23828-0.60156-0.44141-1.2188-0.64063-1.8398-0.43359-1.3555-0.76172-2.75-0.98047-4.1602h-61.758c-4.418 0-8 3.582-8 8v79.32c0 2.1211 0.84375 4.1562 2.3438 5.6562 1.5 1.5039 3.5352 2.3438 5.6562 2.3438h108.32c2.1211 0 4.1562-0.83984 5.6562-2.3438 1.5-1.5 2.3438-3.5352 2.3438-5.6562v-74c-0.75391 1.0195-1.5664 1.9883-2.4414 2.9023zm-3.5391 71.117c0 0.53125-0.21094 1.0391-0.58594 1.4141s-0.88281 0.58594-1.4141 0.58594h-108.32c-1.1055 0-2-0.89453-2-2v-8.8203l2.9805-0.85938c10-2.9414 23.641-6.9609 39-5.1016v0.003906c2.1797 0.53906 4.457-0.43359 5.5781-2.3828l18.52-32 7.4414 12.781c0.97266 1.6836 2.7656 2.7188 4.7109 2.7188 1.9414 0 3.7383-1.0352 4.707-2.7188l12-20.859 17.262 29.859z"/>
  <path d="m101.64 50.801c6.5195 0 12.77-2.5898 17.379-7.1992 4.6094-4.6094 7.1992-10.863 7.1992-17.383s-2.5898-12.77-7.1992-17.379-10.859-7.1992-17.379-7.1992-12.773 2.5898-17.383 7.1992c-4.6094 4.6094-7.1992 10.859-7.1992 17.379 0.007812 6.5195 2.5977 12.77 7.207 17.375 4.6094 4.6094 10.855 7.1992 17.375 7.207zm0-43.16c4.5781-0.007813 9 1.6797 12.41 4.7344 3.4102 3.0586 5.5664 7.2695 6.0586 11.824 0.48828 4.5547-0.72656 9.1289-3.4102 12.84l-25.898-25.879c3.1523-2.2891 6.9453-3.5195 10.84-3.5195zm-15.082 7.7578 25.902 25.883c-4.8008 3.4766-10.973 4.4492-16.613 2.6172-5.6367-1.832-10.059-6.25-11.895-11.887-1.8359-5.6328-0.86719-11.809 2.6055-16.613z"/>
 </g>
</svg>
