<?xml version="1.0" encoding="UTF-8"?>
<svg width="128pt" height="128pt" version="1.1" viewBox="0 0 128 128" xmlns="http://www.w3.org/2000/svg">
 <g fill="#1e53a8" fill-rule="evenodd">
  <path d="m98.359 40.422c0-2.75-1.0898-5.3828-3.0352-7.3242-1.9414-1.9453-4.5781-3.0352-7.3242-3.0352s-5.3828 1.0898-7.3242 3.0352c-1.9453 1.9414-3.0352 4.5742-3.0352 7.3242v3.3477c0 2.75 1.0898 5.3828 3.0352 7.3281 1.9414 1.9414 4.5781 3.0312 7.3242 3.0312s5.3828-1.0898 7.3242-3.0312c1.9453-1.9453 3.0352-4.5781 3.0352-7.3281v-3.3477z"/>
  <path d="m64.082 36.059c0-3.8438-1.5273-7.5312-4.2461-10.25-2.7227-2.7188-6.4062-4.2461-10.25-4.2461h-0.003907c-3.8398 0-7.5312 1.5273-10.246 4.2461-2.7188 2.7188-4.2461 6.4062-4.2461 10.25v4.6875c0 3.8438 1.5273 7.5312 4.2461 10.25 2.7148 2.7188 6.4062 4.2461 10.246 4.2461h0.003907c3.8438 0 7.5273-1.5273 10.25-4.2461 2.7188-2.7188 4.2461-6.4062 4.2461-10.25v-4.6875z"/>
  <path d="m83.172 93.973c0-8.9062-3.5391-17.449-9.8398-23.746-6.2969-6.3008-14.84-9.8359-23.746-9.8359-8.9102 0-17.453 3.5352-23.75 9.8359-6.2969 6.2969-9.8359 14.84-9.8359 23.746v9.4336c0 0.80469 0.31641 1.5742 0.88672 2.1406 0.56641 0.57031 1.3398 0.89062 2.1445 0.89062h61.109c0.80078 0 1.5742-0.32031 2.1406-0.89062 0.57031-0.56641 0.89062-1.3359 0.89062-2.1406v-9.4336z"/>
  <path d="m71.324 64.547c1.457 1.0781 2.8359 2.2617 4.1289 3.5586 6.0898 6.0859 9.8125 14.102 10.57 22.609h23.812c0.57031 0 1.125-0.23047 1.5312-0.63672 0.40625-0.40234 0.63281-0.95703 0.63281-1.5312v-6.7383c0-6.3633-2.5273-12.469-7.0312-16.969-4.5-4.5-10.602-7.0312-16.969-7.0312-6.2266 0-12.203 2.418-16.676 6.7383z"/>
 </g>
</svg>
