<?xml version="1.0" encoding="UTF-8"?>
<svg width="128pt" height="128pt" version="1.1" viewBox="0 0 128 128" xmlns="http://www.w3.org/2000/svg">
 <g fill="#abd1f8">
  <path d="m101.98 22.207h-3.3125v-4.5312c0-2.8281-2.293-5.1172-5.1211-5.1172s-5.1211 2.2891-5.1211 5.1172v4.5312h-19.301v-4.5312c0-2.8281-2.293-5.1172-5.1211-5.1172s-5.1211 2.2891-5.1211 5.1172v4.5312h-19.301v-4.5312c0-2.8281-2.293-5.1172-5.1211-5.1172s-5.1211 2.2891-5.1211 5.1172v4.5312h-3.3125c-4.0742 0-7.9805 1.6211-10.863 4.5-2.8789 2.8789-4.4961 6.7891-4.4961 10.859v62.516c0 4.0742 1.6172 7.9805 4.4961 10.863 2.8828 2.8789 6.7891 4.4961 10.863 4.4961h75.953c4.0742 0 7.9805-1.6172 10.863-4.4961 2.8789-2.8828 4.4961-6.7891 4.4961-10.863v-62.516c0-4.0703-1.6172-7.9805-4.4961-10.859-2.8828-2.8789-6.7891-4.5-10.863-4.5zm5.1211 77.887v0.003906c0 1.3555-0.53906 2.6602-1.5 3.6172-0.96094 0.96094-2.2617 1.5-3.6211 1.5h-75.953c-2.8281 0-5.1211-2.293-5.1211-5.1172v-41.922h86.195zm0-52.148-86.195 0.003907v-10.367c0-2.8281 2.293-5.1211 5.1211-5.1211h3.3164v4.5312h-0.003906c0 2.8281 2.293 5.1211 5.1211 5.1211s5.1211-2.293 5.1211-5.1211v-4.543h19.301v4.5312c0 2.8281 2.293 5.1172 5.1211 5.1172s5.1211-2.2891 5.1211-5.1172v-4.5312h19.301v4.5312c0 2.8281 2.293 5.1172 5.1211 5.1172s5.1211-2.2891 5.1211-5.1172v-4.5312h3.3164-0.003907c1.3594 0 2.6602 0.53906 3.6211 1.5 0.96094 0.95703 1.5 2.2617 1.5 3.6172z"/>
  <path d="m53.762 96.574c1.9648 1.9648 5.1445 2 7.1523 0.078125l29.16-27.902c1-0.93359 1.5859-2.2305 1.625-3.6016 0.039062-1.3672-0.47266-2.6953-1.418-3.6836-0.94531-0.98828-2.25-1.5586-3.6172-1.582-1.3711-0.019531-2.6914 0.50781-3.668 1.4688l-25.551 24.41-12.312-12.289c-2-2-5.2461-2-7.2461 0s-2 5.2422 0 7.2461z"/>
 </g>
</svg>
