<?xml version="1.0" encoding="UTF-8"?>
<svg width="128pt" height="128pt" version="1.1" viewBox="0 0 128 128" xmlns="http://www.w3.org/2000/svg">
 <g fill="#1e53a8">
  <path d="m89.699 90.379v11c0 1.8242-1.4766 3.3008-3.3008 3.3008h-44.957c-1.8242 0-3.3008-1.4766-3.3008-3.3008v-11c-0.003906-6.3789 2.3594-12.535 6.6328-17.277 4.2734-4.7383 10.156-7.7227 16.504-8.3789 6.3477-0.65234 12.711 1.0703 17.863 4.8359 1.0625 0.79297 2.0664 1.6602 3 2.6016 4.8516 4.8203 7.5703 11.383 7.5586 18.219z"/>
  <path d="m81.219 46.262c0 9.5547-7.7461 17.297-17.297 17.297-9.5547 0-17.301-7.7422-17.301-17.297 0-9.5547 7.7461-17.301 17.301-17.301 9.5508 0 17.297 7.7461 17.297 17.301"/>
  <path d="m125 76.738v13.121c-0.011719 1.4727-1.207 2.6602-2.6797 2.6602h-30v-2.1406c0.015626-9.2227-4.4609-17.879-12-23.199 1.7539-3.4023 4.4141-6.2578 7.6836-8.2539 3.2695-1.9922 7.0273-3.0469 10.855-3.0469h5.4219c5.5078 0.039063 10.777 2.2539 14.66 6.1602 3.8789 3.9062 6.0586 9.1914 6.0586 14.699z"/>
  <path d="m117.26 39.121c0 8.7344-7.0859 15.82-15.82 15.82-8.7383 0-15.82-7.0859-15.82-15.82 0-8.7383 7.082-15.82 15.82-15.82 8.7344 0 15.82 7.082 15.82 15.82"/>
  <path d="m35.559 90.379v2.1406h-29.879c-1.4727 0-2.668-1.1875-2.6797-2.6602v-13.121c0-5.5312 2.1992-10.836 6.1094-14.75 3.9141-3.9102 9.2188-6.1094 14.75-6.1094h5.4219c3.8086 0 7.5469 1.0391 10.805 3.0156 3.2578 1.9766 5.9141 4.8047 7.6758 8.1836-7.6367 5.3047-12.191 14.008-12.203 23.301z"/>
  <path d="m42.379 39.121c0 8.7344-7.082 15.82-15.82 15.82-8.7344 0-15.82-7.0859-15.82-15.82 0-8.7383 7.0859-15.82 15.82-15.82 8.7383 0 15.82 7.082 15.82 15.82"/>
 </g>
</svg>
