<?xml version="1.0" encoding="UTF-8"?>
<svg width="128pt" height="128pt" version="1.1" viewBox="0 0 128 128" xmlns="http://www.w3.org/2000/svg">
 <g fill="#abd1f8">
  <path d="m64 4.6641c-32.719 0-59.336 26.621-59.336 59.336s26.617 59.336 59.336 59.336 59.336-26.621 59.336-59.336-26.617-59.336-59.336-59.336zm0 110.93c-28.449 0-51.594-23.145-51.594-51.594s23.145-51.594 51.594-51.594 51.594 23.145 51.594 51.594-23.145 51.594-51.594 51.594z"/>
  <path d="m64 20.145c-24.184 0-43.855 19.672-43.855 43.855s19.672 43.855 43.855 43.855 43.855-19.672 43.855-43.855-19.672-43.855-43.855-43.855zm0 39.469c0.59375 0.30859 1.2109 0.64453 1.8047 0.95312 5.5195 2.9141 12.383 6.5508 12.383 13.75 0 6.4766-4.3867 11.945-10.316 13.645v1.832c0 2.1406-1.7266 3.8711-3.8711 3.8711-2.1406 0-3.8711-1.7266-3.8711-3.8711v-1.832c-5.9336-1.7031-10.316-7.1719-10.316-13.645 0-2.1406 1.7266-3.8711 3.8711-3.8711 2.1406 0 3.8711 1.7266 3.8711 3.8711 0 3.5586 2.8906 6.4492 6.4492 6.4492s6.4492-2.8906 6.4492-6.4492c0-0.17969-0.027344-0.28516-0.050781-0.36328-0.30859-2.0117-3.1992-3.8164-6.3984-5.5703-0.59375-0.30859-1.2109-0.64453-1.8047-0.95312-5.5195-2.9141-12.383-6.5508-12.383-13.75 0-6.4766 4.3867-11.945 10.316-13.645v-1.832c0-2.1406 1.7266-3.8711 3.8711-3.8711 2.1406 0 3.8711 1.7266 3.8711 3.8711v1.832c1.1133 0.32031 2.1758 0.77344 3.1602 1.3398 4.2734 2.4453 7.1602 7.043 7.1602 12.309 0 2.1406-1.7266 3.8711-3.8711 3.8711-2.1406 0-3.8711-1.7266-3.8711-3.8711 0-3.5547-2.8906-6.4492-6.4492-6.4492s-6.4492 2.8906-6.4492 6.4492c-0.003907 2.1367 3.0391 4.0742 6.4453 5.9297z"/>
 </g>
</svg>
