<?xml version="1.0" encoding="UTF-8"?>
<svg width="128pt" height="128pt" version="1.1" viewBox="0 0 128 128" xmlns="http://www.w3.org/2000/svg">
 <path d="m94.465 34.176c-7.8086-7.8086-18.559-12.672-30.465-12.672-11.902 0-22.656 4.8633-30.465 12.672-7.8086 7.8086-12.672 18.559-12.672 30.465 0 23.809 19.328 43.137 43.137 43.137 11.902 0 22.656-4.8633 30.465-12.672 7.8086-7.8086 12.672-18.559 12.672-30.465s-4.8633-22.656-12.672-30.465zm-6.4023 30.848c-0.12891 0.64062-0.64062 1.0234-1.1523 1.2812-6.6562 3.3281-13.441 6.6562-20.098 10.113-6.1445 3.0703-12.289 6.1445-18.434 9.2148-0.64062 0.25781-1.2812 0.51172-1.9219 0.25781-1.2812-0.38281-1.793-1.6641-1.4062-2.9453 0.89453-2.3047 1.6641-4.6094 2.5586-6.9102 0.89453-2.3047 1.793-4.6094 2.5586-7.0391 0.12891-0.25781 0.25781-0.38281 0.64062-0.51172 7.5508-1.2812 15.23-2.5586 22.785-3.8398 0.38281 0 0.76953-0.12891 1.0234-0.12891v-0.12891c-1.1523-0.12891-2.1758-0.38281-3.3281-0.51172-4.9922-0.89453-9.9844-1.6641-14.977-2.4336-1.9219-0.25781-3.7109-0.64062-5.6328-0.89453-0.38281 0-0.51172-0.12891-0.64063-0.51172-1.6641-4.7344-3.457-9.3438-5.2461-13.953-0.38281-0.89453-0.25781-1.6641 0.38281-2.3047 0.76953-0.76953 1.5352-0.89453 2.5586-0.64062 0.25781 0.12891 0.38281 0.12891 0.64062 0.25781 12.672 6.3984 25.344 12.801 38.016 19.07 1.418 0.51172 1.9297 1.4062 1.6719 2.5586z" fill="#2053a8"/>
</svg>
